<svg width="1336" height="1329" viewBox="0 0 1336 1329" fill="none" xmlns="http://www.w3.org/2000/svg">
<g clip-path="url(#clip0)">
<path d="M1330.75 669.747C1335.19 669.747 1337.63 664.482 1334.75 661.14C1333.77 659.996 1332.35 659.278 1330.75 659.278H1320.28C1315.84 659.278 1313.4 664.543 1316.28 667.885C1317.26 669.03 1318.68 669.747 1320.28 669.747H1330.75ZM989.756 659.278C985.316 659.278 982.874 664.543 985.758 667.885C986.735 669.03 988.154 669.747 989.756 669.747H995.708C1000.15 669.747 1002.59 664.482 999.706 661.14C998.729 659.996 997.31 659.278 995.708 659.278H989.756ZM1027.11 659.278C1022.67 659.278 1020.23 664.543 1023.12 667.885C1024.09 669.03 1025.51 669.747 1027.11 669.747H1037.58C1042.02 669.747 1044.46 664.482 1041.58 661.14C1040.6 659.996 1039.18 659.278 1037.58 659.278H1027.11ZM1068.99 659.278C1064.55 659.278 1062.11 664.543 1064.99 667.885C1065.97 669.03 1067.39 669.747 1068.99 669.747H1079.46C1083.9 669.747 1086.34 664.482 1083.46 661.14C1082.48 659.996 1081.06 659.278 1079.46 659.278H1068.99ZM1110.86 659.278C1106.42 659.278 1103.98 664.543 1106.86 667.885C1107.84 669.03 1109.26 669.747 1110.86 669.747H1121.33C1125.77 669.747 1128.21 664.482 1125.33 661.14C1124.35 659.996 1122.93 659.278 1121.33 659.278H1110.86ZM1152.74 659.278C1148.3 659.278 1145.85 664.543 1148.74 667.885C1149.72 669.03 1151.13 669.747 1152.74 669.747H1163.21C1167.65 669.747 1170.09 664.482 1167.2 661.14C1166.23 659.996 1164.81 659.278 1163.21 659.278H1152.74ZM1194.61 659.278C1190.17 659.278 1187.73 664.543 1190.61 667.885C1191.59 669.03 1193.01 669.747 1194.61 669.747H1205.08C1209.52 669.747 1211.96 664.482 1209.08 661.14C1208.1 659.996 1206.68 659.278 1205.08 659.278H1194.61ZM1236.49 659.278C1232.05 659.278 1229.6 664.543 1232.49 667.885C1233.46 669.03 1234.88 669.747 1236.49 669.747H1246.95C1251.4 669.747 1253.84 664.482 1250.95 661.14C1249.98 659.996 1248.56 659.278 1246.95 659.278H1236.49ZM1278.36 659.278C1273.92 659.278 1271.48 664.543 1274.36 667.885C1275.34 669.03 1276.76 669.747 1278.36 669.747H1288.83C1293.27 669.747 1295.71 664.482 1292.83 661.14C1291.85 659.996 1290.43 659.278 1288.83 659.278H1278.36Z" fill="#252B47"/>
<path d="M666.252 1323.79C666.252 1329.94 675.348 1331.21 676.66 1324.59L676.721 1323.79V1313.32C676.721 1307.17 667.626 1305.91 666.313 1312.53L666.252 1313.32V1323.79ZM676.721 894.504C676.721 888.354 667.626 887.087 666.313 893.71L666.252 894.504V904.973C666.252 911.123 675.348 912.39 676.66 905.766L676.721 904.973V894.504ZM676.721 936.38C676.721 930.23 667.626 928.963 666.313 935.586L666.252 936.38V946.849C666.252 952.999 675.348 954.265 676.66 947.642L676.721 946.849V936.38ZM676.721 978.256C676.721 972.105 667.626 970.839 666.313 977.462L666.252 978.256V988.724C666.252 994.875 675.348 996.141 676.66 989.518L676.721 988.724V978.256ZM676.721 1020.13C676.721 1013.98 667.626 1012.71 666.313 1019.34L666.252 1020.13V1030.6C666.252 1036.75 675.348 1038.02 676.66 1031.39L676.721 1030.6V1020.13ZM676.721 1062.01C676.721 1055.86 667.626 1054.59 666.313 1061.21L666.252 1062.01V1072.48C666.252 1078.63 675.348 1079.89 676.66 1073.27L676.721 1072.48V1062.01ZM676.721 1103.88C676.721 1097.73 667.626 1096.47 666.313 1103.09L666.252 1103.88V1114.35C666.252 1120.5 675.348 1121.77 676.66 1115.15L676.721 1114.35V1103.88ZM676.721 1145.76C676.721 1139.61 667.626 1138.34 666.313 1144.97L666.252 1145.76V1156.23C666.252 1162.38 675.348 1163.64 676.66 1157.02L676.721 1156.23V1145.76ZM676.721 1187.63C676.721 1181.48 667.626 1180.22 666.313 1186.84L666.252 1187.63V1198.1C666.252 1204.25 675.348 1205.52 676.66 1198.9L676.721 1198.1V1187.63ZM676.721 1229.51C676.721 1223.36 667.626 1222.09 666.313 1228.72L666.252 1229.51V1239.98C666.252 1246.13 675.348 1247.4 676.66 1240.77L676.721 1239.98V1229.51ZM676.721 1271.39C676.721 1265.24 667.626 1263.97 666.313 1270.59L666.252 1271.39V1281.86C666.252 1288.01 675.348 1289.27 676.66 1282.65L676.721 1281.86V1271.39Z" fill="#252B47"/>
<path d="M5.24587 659.278C0.805101 659.278 -1.63656 664.543 1.24765 667.885C2.22432 669.03 3.64353 669.747 5.24587 669.747H15.7145C20.1553 669.747 22.5969 664.482 19.7127 661.14C18.736 659.996 17.3168 659.278 15.7145 659.278H5.24587ZM308.882 669.747C313.322 669.747 315.764 664.482 312.88 661.14C311.903 659.996 310.484 659.278 308.882 659.278H298.413C293.972 659.278 291.531 664.543 294.415 667.885C295.391 669.03 296.811 669.747 298.413 669.747H308.882ZM267.007 669.747C271.448 669.747 273.89 664.482 271.005 661.14C270.029 659.996 268.609 659.278 267.007 659.278H256.538C252.098 659.278 249.656 664.543 252.54 667.885C253.517 669.03 254.936 669.747 256.538 669.747H267.007ZM225.133 669.747C229.573 669.747 232.015 664.482 229.131 661.14C228.154 659.996 226.735 659.278 225.133 659.278H214.664C210.223 659.278 207.782 664.543 210.666 667.885C211.642 669.03 213.062 669.747 214.664 669.747H225.133ZM183.258 669.747C187.699 669.747 190.141 664.482 187.256 661.14C186.28 659.996 184.86 659.278 183.258 659.278H172.79C168.349 659.278 165.907 664.543 168.791 667.885C169.768 669.03 171.187 669.747 172.79 669.747H183.258ZM141.384 669.747C145.824 669.747 148.266 664.482 145.382 661.14C144.405 659.996 142.986 659.278 141.384 659.278H130.915C126.474 659.278 124.033 664.543 126.917 667.885C127.894 669.03 129.313 669.747 130.915 669.747H141.384ZM99.5092 669.747C103.95 669.747 106.392 664.482 103.507 661.14C102.531 659.996 101.112 659.278 99.5092 659.278H89.0406C84.5998 659.278 82.1582 664.543 85.0424 667.885C86.019 669.03 87.4383 669.747 89.0406 669.747H99.5092ZM57.6347 669.747C62.0755 669.747 64.5172 664.482 61.633 661.14C60.6563 659.996 59.2371 659.278 57.6347 659.278H47.1661C42.7254 659.278 40.2837 664.543 43.1679 667.885C44.1446 669.03 45.5638 669.747 47.1661 669.747H57.6347Z" fill="#252B47"/>
<path d="M676.721 5.22556C676.721 -0.924572 667.626 -2.19122 666.313 4.43199L666.252 5.22556V15.6945C666.252 21.8446 675.348 23.1113 676.66 16.4881L676.721 15.6945V5.22556ZM666.252 350.762C666.252 356.912 675.348 358.179 676.66 351.556L676.721 350.762V340.293C676.721 334.143 667.626 332.876 666.313 339.5L666.252 340.293V350.762ZM666.252 308.886C666.252 315.036 675.348 316.303 676.66 309.68L676.721 308.886V298.417C676.721 292.267 667.626 291.001 666.313 297.624L666.252 298.417V308.886ZM666.252 267.01C666.252 273.161 675.348 274.427 676.66 267.804L676.721 267.01V256.542C676.721 250.391 667.626 249.125 666.313 255.748L666.252 256.542V267.01ZM666.252 225.135C666.252 231.285 675.348 232.551 676.66 225.928L676.721 225.135V214.666C676.721 208.516 667.626 207.249 666.313 213.872L666.252 214.666V225.135ZM666.252 183.259C666.252 189.409 675.348 190.676 676.66 184.052L676.721 183.259V172.79C676.721 166.64 667.626 165.373 666.313 171.996L666.252 172.79V183.259ZM666.252 141.383C666.252 147.533 675.348 148.8 676.66 142.177L676.721 141.383V130.914C676.721 124.764 667.626 123.497 666.313 130.12L666.252 130.914V141.383ZM666.252 99.5072C666.252 105.657 675.348 106.924 676.66 100.301L676.721 99.5072V89.0382C676.721 82.8881 667.626 81.6215 666.313 88.2447L666.252 89.0382V99.5072ZM666.252 57.6314C666.252 63.7815 675.348 65.0481 676.66 58.4249L676.721 57.6314V47.1624C676.721 41.0123 667.626 39.7456 666.313 46.3689L666.252 47.1624V57.6314Z" fill="#252B47"/>
<path d="M673.345 140.332C813.542 140.332 940.478 197.163 1032.36 289.049C1124.24 380.934 1181.07 507.874 1181.07 648.076C1181.07 788.277 1124.24 915.217 1032.36 1007.1C940.478 1098.99 813.542 1155.82 673.345 1155.82C533.148 1155.82 406.212 1098.99 314.33 1007.1C222.447 915.217 165.617 788.277 165.617 648.076C165.617 507.874 222.447 380.934 314.33 289.049C406.212 197.163 533.148 140.332 673.345 140.332ZM1011.38 310.017C924.866 223.503 805.347 169.999 673.345 169.999C541.328 169.999 421.808 223.503 335.313 310.017C248.801 396.531 195.299 516.054 195.299 648.061C195.299 780.082 248.801 899.605 335.313 986.104C421.824 1072.62 541.343 1126.12 673.345 1126.12C805.347 1126.12 924.882 1072.62 1011.38 986.104C1097.89 899.59 1151.39 780.067 1151.39 648.061C1151.39 516.054 1097.89 396.516 1011.38 310.017Z" fill="#252B47"/>
<path fill-rule="evenodd" clip-rule="evenodd" d="M109.809 414.215C112.327 407.988 119.484 404.967 125.71 407.485L297.145 476.967C303.371 479.486 306.408 486.643 303.875 492.869C301.357 499.096 294.2 502.133 287.974 499.599L116.539 430.117C110.312 427.599 107.291 420.441 109.809 414.215Z" fill="#252B47"/>
<path fill-rule="evenodd" clip-rule="evenodd" d="M516.557 1235.88C523.042 1237.61 529.772 1233.71 531.497 1227.23L579.14 1048.48C580.864 1041.99 576.973 1035.26 570.487 1033.54C564.001 1031.81 557.271 1035.7 555.547 1042.19L507.904 1220.94C506.18 1227.43 510.071 1234.16 516.557 1235.88Z" fill="#252B47"/>
<path fill-rule="evenodd" clip-rule="evenodd" d="M831.882 60.5735C838.368 62.298 842.275 69.028 840.535 75.5139L792.892 254.264C791.168 260.75 784.438 264.657 777.952 262.917C771.466 261.193 767.56 254.463 769.299 247.962L816.942 69.2111C818.667 62.7253 825.397 58.8338 831.882 60.5582V60.5735Z" fill="#252B47"/>
<path fill-rule="evenodd" clip-rule="evenodd" d="M1239.81 870.972C1242.33 864.745 1239.31 857.588 1233.08 855.07L1061.64 785.587C1055.42 783.069 1048.26 786.091 1045.74 792.317C1043.22 798.544 1046.25 805.701 1052.47 808.219L1223.91 877.702C1230.13 880.22 1237.29 877.198 1239.81 870.972Z" fill="#252B47"/>
<path fill-rule="evenodd" clip-rule="evenodd" d="M850.349 844.57C866.769 866.087 997.627 854.733 1004.37 818.016C1003.35 733.577 998.787 648.406 954.578 574.025C918.38 513.104 780.67 440.843 733.821 426.3C726.374 396.098 711.938 372.398 689.001 356.588C660.846 343.128 629.196 340.732 594.402 348.286C564.996 362.082 542.639 394.359 537.588 421.416C555.702 418.578 575.037 418.547 591.075 422.973C560.921 425.491 530.095 432.114 496.888 456.165C439.357 497.827 419.793 578.908 411.827 647.048C370.975 654.038 343.445 645.476 338.791 603.89C335.678 575.978 347.215 553.591 380.299 536.941C385.915 534.118 400.626 523.344 398.535 515.103C358.263 513.882 288.371 537.292 280.695 603.906C269.509 700.904 338.883 713.799 396.872 713.464C388.555 780.352 411.049 815.818 446.758 868.209C453.045 877.426 493.485 864.699 493.974 853.711C496.217 804.372 467.131 779.772 484.024 733.364C498.292 694.158 524.662 698.401 540.457 640.41C531.438 701.255 532.842 787.631 534.765 840.205C546.363 857.389 614.058 858.426 624.404 842.693C631.592 817.802 628.54 735.927 631.653 709.19C631.653 745.16 639.222 843.471 639.222 879.425C650.469 911.611 802.798 912.801 830.099 872.787C829.595 819.114 844.138 752.623 832.556 698.95C853.813 733.883 846.32 790.516 850.349 844.554V844.57Z" fill="url(#paint0_linear)"/>
</g>
<defs>
<linearGradient id="paint0_linear" x1="855.553" y1="861.006" x2="428.308" y2="386.284" gradientUnits="userSpaceOnUse">
<stop stop-color="#1F194D"/>
<stop offset="0.521569" stop-color="#145280"/>
<stop offset="1" stop-color="#098BB3"/>
</linearGradient>
<clipPath id="clip0">
<rect width="1336" height="1329" fill="white"/>
</clipPath>
</defs>
</svg>
