<svg width="1282" height="1276" viewBox="0 0 1282 1276" fill="none" xmlns="http://www.w3.org/2000/svg">
<path d="M1276.82 642.526C1281.08 642.526 1283.42 637.475 1280.66 634.269C1279.72 633.171 1278.36 632.482 1276.82 632.482H1266.78C1262.52 632.482 1260.17 637.534 1262.94 640.74C1263.88 641.838 1265.24 642.526 1266.78 642.526H1276.82ZM949.683 632.482C945.422 632.482 943.08 637.534 945.847 640.74C946.784 641.838 948.145 642.526 949.683 642.526H955.392C959.653 642.526 961.995 637.475 959.228 634.269C958.291 633.171 956.93 632.482 955.392 632.482H949.683ZM985.522 632.482C981.262 632.482 978.919 637.534 981.686 640.74C982.623 641.838 983.985 642.526 985.522 642.526H995.565C999.826 642.526 1002.17 637.475 999.401 634.269C998.464 633.171 997.103 632.482 995.565 632.482H985.522ZM1025.7 632.482C1021.43 632.482 1019.09 637.534 1021.86 640.74C1022.8 641.838 1024.16 642.526 1025.7 642.526H1035.74C1040 642.526 1042.34 637.475 1039.57 634.269C1038.64 633.171 1037.28 632.482 1035.74 632.482H1025.7ZM1065.87 632.482C1061.61 632.482 1059.27 637.534 1062.03 640.74C1062.97 641.838 1064.33 642.526 1065.87 642.526H1075.91C1080.17 642.526 1082.51 637.475 1079.75 634.269C1078.81 633.171 1077.45 632.482 1075.91 632.482H1065.87ZM1106.04 632.482C1101.78 632.482 1099.44 637.534 1102.21 640.74C1103.14 641.838 1104.5 642.526 1106.04 642.526H1116.08C1120.34 642.526 1122.69 637.475 1119.92 634.269C1118.98 633.171 1117.62 632.482 1116.08 632.482H1106.04ZM1146.21 632.482C1141.95 632.482 1139.61 637.534 1142.38 640.74C1143.32 641.838 1144.68 642.526 1146.21 642.526H1156.26C1160.52 642.526 1162.86 637.475 1160.09 634.269C1159.16 633.171 1157.79 632.482 1156.26 632.482H1146.21ZM1186.39 632.482C1182.13 632.482 1179.78 637.534 1182.55 640.74C1183.49 641.838 1184.85 642.526 1186.39 642.526H1196.43C1200.69 642.526 1203.03 637.475 1200.27 634.269C1199.33 633.171 1197.97 632.482 1196.43 632.482H1186.39ZM1226.56 632.482C1222.3 632.482 1219.96 637.534 1222.72 640.74C1223.66 641.838 1225.02 642.526 1226.56 642.526H1236.6C1240.86 642.526 1243.21 637.475 1240.44 634.269C1239.5 633.171 1238.14 632.482 1236.6 632.482H1226.56Z" fill="white"/>
<path d="M639.323 1270C639.323 1275.9 648.049 1277.11 649.308 1270.76L649.366 1270V1259.95C649.366 1254.05 640.641 1252.84 639.382 1259.19L639.323 1259.95V1270ZM649.366 858.151C649.366 852.251 640.641 851.035 639.382 857.389L639.323 858.151V868.194C639.323 874.095 648.049 875.31 649.308 868.956L649.366 868.194V858.151ZM649.366 898.325C649.366 892.425 640.641 891.21 639.382 897.564L639.323 898.325V908.369C639.323 914.269 648.049 915.484 649.308 909.13L649.366 908.369V898.325ZM649.366 938.499C649.366 932.599 640.641 931.384 639.382 937.738L639.323 938.499V948.543C639.323 954.443 648.049 955.658 649.308 949.304L649.366 948.543V938.499ZM649.366 978.674C649.366 972.774 640.641 971.558 639.382 977.912L639.323 978.674V988.717C639.323 994.618 648.049 995.833 649.308 989.479L649.366 988.717V978.674ZM649.366 1018.85C649.366 1012.95 640.641 1011.73 639.382 1018.09L639.323 1018.85V1028.89C639.323 1034.79 648.049 1036.01 649.308 1029.65L649.366 1028.89V1018.85ZM649.366 1059.02C649.366 1053.12 640.641 1051.91 639.382 1058.26L639.323 1059.02V1069.07C639.323 1074.97 648.049 1076.18 649.308 1069.83L649.366 1069.07V1059.02ZM649.366 1099.2C649.366 1093.3 640.641 1092.08 639.382 1098.44L639.323 1099.2V1109.24C639.323 1115.14 648.049 1116.36 649.308 1110L649.366 1109.24V1099.2ZM649.366 1139.37C649.366 1133.47 640.641 1132.26 639.382 1138.61L639.323 1139.37V1149.41C639.323 1155.31 648.049 1156.53 649.308 1150.18L649.366 1149.41V1139.37ZM649.366 1179.55C649.366 1173.65 640.641 1172.43 639.382 1178.78L639.323 1179.55V1189.59C639.323 1195.49 648.049 1196.7 649.308 1190.35L649.366 1189.59V1179.55ZM649.366 1219.72C649.366 1213.82 640.641 1212.6 639.382 1218.96L639.323 1219.72V1229.76C639.323 1235.66 648.049 1236.88 649.308 1230.52L649.366 1229.76V1219.72Z" fill="white"/>
<path d="M5.17481 632.482C0.914478 632.482 -1.42797 637.534 1.33905 640.74C2.27603 641.838 3.63758 642.526 5.17481 642.526H15.2181C19.4784 642.526 21.8209 637.475 19.0538 634.269C18.1168 633.171 16.7553 632.482 15.2181 632.482H5.17481ZM296.473 642.526C300.734 642.526 303.076 637.475 300.309 634.269C299.372 633.171 298.01 632.482 296.473 632.482H286.43C282.17 632.482 279.827 637.534 282.594 640.74C283.531 641.838 284.893 642.526 286.43 642.526H296.473ZM256.3 642.526C260.56 642.526 262.903 637.475 260.136 634.269C259.199 633.171 257.837 632.482 256.3 632.482H246.257C241.997 632.482 239.654 637.534 242.421 640.74C243.358 641.838 244.72 642.526 246.257 642.526H256.3ZM216.127 642.526C220.387 642.526 222.73 637.475 219.963 634.269C219.026 633.171 217.664 632.482 216.127 632.482H206.084C201.824 632.482 199.481 637.534 202.248 640.74C203.185 641.838 204.547 642.526 206.084 642.526H216.127ZM175.954 642.526C180.214 642.526 182.557 637.475 179.79 634.269C178.853 633.171 177.491 632.482 175.954 632.482H165.911C161.651 632.482 159.308 637.534 162.075 640.74C163.012 641.838 164.374 642.526 165.911 642.526H175.954ZM135.781 642.526C140.041 642.526 142.384 637.475 139.617 634.269C138.68 633.171 137.318 632.482 135.781 632.482H125.738C121.477 632.482 119.135 637.534 121.902 640.74C122.839 641.838 124.201 642.526 125.738 642.526H135.781ZM95.608 642.526C99.8684 642.526 102.211 637.475 99.4438 634.269C98.5068 633.171 97.1453 632.482 95.608 632.482H85.5648C81.3045 632.482 78.962 637.534 81.729 640.74C82.666 641.838 84.0276 642.526 85.5648 642.526H95.608ZM55.435 642.526C59.6954 642.526 62.0378 637.475 59.2708 634.269C58.3338 633.171 56.9723 632.482 55.435 632.482H45.3918C41.1314 632.482 38.789 637.534 41.556 640.74C42.493 641.838 43.8545 642.526 45.3918 642.526H55.435Z" fill="white"/>
<path d="M649.366 5.00574C649.366 -0.894499 640.641 -2.10968 639.382 4.24442L639.323 5.00574V15.0493C639.323 20.9496 648.049 22.1647 649.308 15.8106L649.366 15.0493V5.00574ZM639.323 336.502C639.323 342.403 648.049 343.618 649.308 337.264L649.366 336.502V326.459C649.366 320.559 640.641 319.343 639.382 325.698L639.323 326.459V336.502ZM639.323 296.328C639.323 302.228 648.049 303.444 649.308 297.089L649.366 296.328V286.285C649.366 280.384 640.641 279.169 639.382 285.523L639.323 286.285V296.328ZM639.323 256.154C639.323 262.054 648.049 263.269 649.308 256.915L649.366 256.154V246.11C649.366 240.21 640.641 238.995 639.382 245.349L639.323 246.11V256.154ZM639.323 215.979C639.323 221.88 648.049 223.095 649.308 216.741L649.366 215.979V205.936C649.366 200.036 640.641 198.82 639.382 205.175L639.323 205.936V215.979ZM639.323 175.805C639.323 181.705 648.049 182.921 649.308 176.566L649.366 175.805V165.762C649.366 159.861 640.641 158.646 639.382 165L639.323 165.762V175.805ZM639.323 135.631C639.323 141.531 648.049 142.746 649.308 136.392L649.366 135.631V125.587C649.366 119.687 640.641 118.472 639.382 124.826L639.323 125.587V135.631ZM639.323 95.4565C639.323 101.357 648.049 102.572 649.308 96.2178L649.366 95.4565V85.4129C649.366 79.5127 640.641 78.2975 639.382 84.6516L639.323 85.4129V95.4565ZM639.323 55.2822C639.323 61.1824 648.049 62.3976 649.308 56.0435L649.366 55.2822V45.2386C649.366 39.3384 640.641 38.1232 639.382 44.4773L639.323 45.2386V55.2822Z" fill="white"/>
<path d="M646.128 134.622C780.628 134.622 902.406 189.144 990.556 277.297C1078.7 365.449 1133.23 487.231 1133.23 621.736C1133.23 756.241 1078.7 878.023 990.556 966.175C902.406 1054.33 780.628 1108.85 646.128 1108.85C511.627 1108.85 389.849 1054.33 301.7 966.175C213.55 878.023 159.03 756.241 159.03 621.736C159.03 487.231 213.55 365.449 301.7 277.297C389.849 189.144 511.627 134.622 646.128 134.622ZM970.425 297.413C887.429 214.414 772.766 163.084 646.128 163.084C519.474 163.084 404.811 214.414 321.83 297.413C238.834 380.412 187.505 495.078 187.505 621.721C187.505 748.378 238.834 863.045 321.83 946.029C404.826 1029.03 519.489 1080.36 646.128 1080.36C772.766 1080.36 887.444 1029.03 970.425 946.029C1053.42 863.03 1104.75 748.364 1104.75 621.721C1104.75 495.078 1053.42 380.397 970.425 297.413Z" fill="white"/>
<path fill-rule="evenodd" clip-rule="evenodd" d="M105.489 397.377C107.905 391.403 114.771 388.505 120.744 390.92L285.214 457.58C291.187 459.996 294.1 466.862 291.67 472.836C289.254 478.809 282.388 481.722 276.415 479.292L111.945 412.633C105.972 410.217 103.073 403.35 105.489 397.377Z" fill="white"/>
<path fill-rule="evenodd" clip-rule="evenodd" d="M495.71 1185.66C501.932 1187.31 508.388 1183.58 510.043 1177.36L555.75 1005.87C557.404 999.647 553.671 993.19 547.449 991.536C541.227 989.881 534.77 993.615 533.116 999.837L487.409 1171.32C485.754 1177.55 489.488 1184 495.71 1185.66Z" fill="white"/>
<path fill-rule="evenodd" clip-rule="evenodd" d="M798.223 58.1046C804.445 59.759 808.193 66.2156 806.524 72.4379L760.817 243.926C759.163 250.148 752.707 253.896 746.484 252.227C740.262 250.572 736.514 244.116 738.183 237.879L783.89 66.3913C785.545 60.169 792.001 56.4356 798.223 58.09V58.1046Z" fill="white"/>
<path fill-rule="evenodd" clip-rule="evenodd" d="M1189.57 835.575C1191.99 829.601 1189.09 822.735 1183.12 820.319L1018.65 753.66C1012.68 751.244 1005.81 754.143 1003.39 760.116C1000.98 766.09 1003.88 772.956 1009.85 775.372L1174.32 842.031C1180.29 844.447 1187.16 841.548 1189.57 835.575Z" fill="white"/>
<path fill-rule="evenodd" clip-rule="evenodd" d="M815.94 810.245C831.693 830.889 957.234 819.996 963.705 784.77C962.724 703.763 958.346 622.053 915.933 550.694C881.207 492.248 749.092 422.923 704.147 408.971C697.002 379.997 683.152 357.259 661.148 342.092C634.137 329.178 603.773 326.88 570.393 334.127C542.181 347.362 520.733 378.328 515.887 404.286C533.265 401.562 551.814 401.533 567.201 405.779C538.272 408.195 508.698 414.549 476.841 437.623C421.647 477.592 402.878 555.379 395.236 620.75C356.044 627.455 329.633 619.242 325.167 579.346C322.181 552.568 333.249 531.09 364.989 515.116C370.377 512.408 384.49 502.071 382.484 494.165C343.848 492.994 276.796 515.453 269.432 579.36C258.7 672.417 325.255 684.789 380.888 684.466C372.909 748.637 394.489 782.662 428.748 832.924C434.779 841.767 473.576 829.557 474.045 819.015C476.197 771.682 448.292 748.081 464.499 703.558C478.188 665.946 503.486 670.016 518.639 614.381C509.987 672.754 511.334 755.621 513.178 806.058C524.305 822.544 589.249 823.539 599.176 808.445C606.071 784.565 603.143 706.018 606.13 680.367C606.13 714.875 613.391 809.191 613.391 843.685C624.181 874.562 770.321 875.704 796.512 837.316C796.029 785.825 809.981 722.035 798.869 670.543C819.263 704.056 812.075 758.388 815.94 810.231V810.245Z" fill="white"/>
</svg>
